<?xml version="1.0" encoding="UTF-8"?>
<svg width="64px" height="64px" viewBox="0 0 64 64" version="1.1" xmlns="http://www.w3.org/2000/svg" xmlns:xlink="http://www.w3.org/1999/xlink">
    <!-- Generator: Sketch 47.1 (45422) - http://www.bohemiancoding.com/sketch -->
    <title>date-time-o</title>
    <desc>Created with Sketch.</desc>
    <defs></defs>
    <g id="icon" stroke="none" stroke-width="1" fill="none" fill-rule="evenodd">
        <g id="date-time-o" fill="#ffffff">
            <path d="M50,47.2093111 L52.2715916,49.4809027 C53.0518987,50.2612098 53.056743,51.5214934 52.2702491,52.3079873 C51.4892005,53.0890359 50.2290394,53.0952048 49.4431645,52.3093298 L46.6120523,49.4782176 C46.4083227,49.274488 46.2574545,49.0380397 46.1597301,48.7858475 C46.0569086,48.5463084 46,48.2832363 46,48.007983 L46,40.992017 C46,39.8918564 46.8877296,39 48,39 C49.1045695,39 50,39.9001762 50,40.992017 L50,47.2093111 Z M56,30.7612927 C54.7359299,30.1736806 53.3964274,29.7210117 52,29.4217938 L52,12 C52,10.8954305 51.1045695,10 50,10 L6,10 C4.8954305,10 4,10.8954305 4,12 L4,56 C4,57.1045695 4.8954305,58 6,58 L31.8414308,58 C32.7601287,59.4813366 33.8768449,60.8269943 35.1546064,62 L4.00490831,62 C1.79305852,62 0,60.200205 0,57.9950917 L0,10.0049083 C0,7.79305852 1.79979503,6 4.00490831,6 L12,6 L12,4.00236948 C12,1.79192185 13.7953562,0 16,0 C18.209139,0 20,1.79182182 20,4.00236948 L20,6 L36,6 L36,4.00236948 C36,1.79192185 37.7953562,0 40,0 C42.209139,0 44,1.79182182 44,4.00236948 L44,6 L51.9950917,6 C54.2069415,6 56,7.79979503 56,10.0049083 L56,30.7612927 Z M11,17 L45,17 C46.1045695,17 47,17.8954305 47,19 L47,25 C47,26.1045695 46.1045695,27 45,27 L11,27 C9.8954305,27 9,26.1045695 9,25 L9,19 C9,17.8954305 9.8954305,17 11,17 Z M11,35 L29,35 C30.1045695,35 31,35.8954305 31,37 C31,38.1045695 30.1045695,39 29,39 L11,39 C9.8954305,39 9,38.1045695 9,37 C9,35.8954305 9.8954305,35 11,35 Z M11,47 L23,47 C24.1045695,47 25,47.8954305 25,49 C25,50.1045695 24.1045695,51 23,51 L11,51 C9.8954305,51 9,50.1045695 9,49 C9,47.8954305 9.8954305,47 11,47 Z M48,64 C39.163444,64 32,56.836556 32,48 C32,39.163444 39.163444,32 48,32 C56.836556,32 64,39.163444 64,48 C64,56.836556 56.836556,64 48,64 Z M48,60 C54.627417,60 60,54.627417 60,48 C60,41.372583 54.627417,36 48,36 C41.372583,36 36,41.372583 36,48 C36,54.627417 41.372583,60 48,60 Z" id="date-time"></path>
        </g>
    </g>
</svg>
