<?xml version="1.0" encoding="UTF-8"?>
<svg width="64px" height="64px" viewBox="0 0 64 64" version="1.1" xmlns="http://www.w3.org/2000/svg" xmlns:xlink="http://www.w3.org/1999/xlink">
    <!-- Generator: Sketch 47.1 (45422) - http://www.bohemiancoding.com/sketch -->
    <title>document-box-o</title>
    <desc>Created with Sketch.</desc>
    <defs></defs>
    <g id="icon" stroke="none" stroke-width="1" fill="none" fill-rule="evenodd">
        <g id="document-box-o" fill-rule="nonzero" fill="#6581E1">
            <path d="M40,62 L24,62 L24,62 C21.790861,62 20,60.209139 20,58 L20,6 L20,6 C20,3.790861 21.790861,2 24,2 L40,2 L40,2 C42.209139,2 44,3.790861 44,6 L44,58 C44,60.209139 42.209139,62 40,62 L40,62 Z M40,55.7142857 L40,8.28571429 C40,7.18114479 39.1045695,6.28571429 38,6.28571429 L26,6.28571429 C24.8954305,6.28571429 24,7.18114479 24,8.28571429 L24,55.7142857 C24,56.8188552 24.8954305,57.7142857 26,57.7142857 L38,57.7142857 C39.1045695,57.7142857 40,56.8188552 40,55.7142857 Z M59.9997502,59.8571429 L46,59.8571429 L46,55.5714286 L58,55.5714286 L58,55.5714286 C59.1045695,55.5714286 60,54.6759981 60,53.5714286 L60,10.4285714 C60,9.32400193 59.1045695,8.42857143 58,8.42857143 L46,8.42857143 L46,4.14285714 L59.9997502,4.14285714 C62.2088892,4.14285714 63.9997502,5.93371814 63.9997502,8.14285714 L63.9997502,55.8571429 C63.9997502,58.0662819 62.2088892,59.8571429 59.9997502,59.8571429 L59.9997502,59.8571429 Z M18,59.8571429 L4,59.8571429 C1.790861,59.8571429 2.705415e-16,58.0662819 0,55.8571429 L0,8.14285714 L0,8.14285714 C-2.705415e-16,5.93371814 1.790861,4.14285714 4,4.14285714 L18,4.14285714 L18,8.42857143 L6,8.42857143 L6,8.42857143 C4.8954305,8.42857143 4,9.32400193 4,10.4285714 L4,53.5714286 L4,53.5714286 C4,54.6759981 4.8954305,55.5714286 6,55.5714286 L18,55.5714286 L18,59.8571429 Z M15.3928571,18.0714286 L8.60714286,18.0714286 C7.71954237,18.0714286 7,17.3518862 7,16.4642857 C7,15.5766852 7.71954237,14.8571429 8.60714286,14.8571429 L15.3928571,14.8571429 L15.3928571,14.8571429 C16.2804576,14.8571429 17,15.5766852 17,16.4642857 C17,17.3518862 16.2804576,18.0714286 15.3928571,18.0714286 L15.3928571,18.0714286 Z M15.3928571,27.7142857 L8.60714286,27.7142857 C7.71954237,27.7142857 7,26.9947433 7,26.1071429 C7,25.2195424 7.71954237,24.5 8.60714286,24.5 L15.3928571,24.5 C16.2804576,24.5 17,25.2195424 17,26.1071429 C17,26.9947433 16.2804576,27.7142857 15.3928571,27.7142857 Z M15.3928571,37.3571429 L8.60714286,37.3571429 C7.71954237,37.3571429 7,36.6376005 7,35.75 L7,35.75 L7,35.75 C7,34.8623995 7.71954237,34.1428571 8.60714286,34.1428571 L15.3928571,34.1428571 L15.3928571,34.1428571 C16.2804576,34.1428571 17,34.8623995 17,35.75 C17,36.6376005 16.2804576,37.3571429 15.3928571,37.3571429 L15.3928571,37.3571429 Z M27,15.3928571 C27,14.5052567 27.7195424,13.7857143 28.6071429,13.7857143 L35.3928571,13.7857143 L35.3928571,13.7857143 C36.2804576,13.7857143 37,14.5052567 37,15.3928571 L37,15.3928571 C37,16.2804576 36.2804576,17 35.3928571,17 L28.6071429,17 C27.7195424,17 27,16.2804576 27,15.3928571 Z M27,25.0357143 C27,24.1481138 27.7195424,23.4285714 28.6071429,23.4285714 L35.3928571,23.4285714 C36.2804576,23.4285714 37,24.1481138 37,25.0357143 C37,25.9233148 36.2804576,26.6428571 35.3928571,26.6428571 L28.6071429,26.6428571 C27.7195424,26.6428571 27,25.9233148 27,25.0357143 Z M27,34.6785714 C27,33.7909709 27.7195424,33.0714286 28.6071429,33.0714286 L35.3928571,33.0714286 C36.2804576,33.0714286 37,33.7909709 37,34.6785714 C37,35.5661719 36.2804576,36.2857143 35.3928571,36.2857143 L28.6071429,36.2857143 C27.7195424,36.2857143 27,35.5661719 27,34.6785714 Z M56.3928571,18.0714286 L49.6071429,18.0714286 C48.7195424,18.0714286 48,17.3518862 48,16.4642857 C48,15.5766852 48.7195424,14.8571429 49.6071429,14.8571429 L56.3928571,14.8571429 L56.3928571,14.8571429 C57.2804576,14.8571429 58,15.5766852 58,16.4642857 C58,17.3518862 57.2804576,18.0714286 56.3928571,18.0714286 L56.3928571,18.0714286 Z M56.3928571,27.7142857 L49.6071429,27.7142857 C48.7195424,27.7142857 48,26.9947433 48,26.1071429 C48,25.2195424 48.7195424,24.5 49.6071429,24.5 L56.3928571,24.5 C57.2804576,24.5 58,25.2195424 58,26.1071429 C58,26.9947433 57.2804576,27.7142857 56.3928571,27.7142857 Z M56.3928571,37.3571429 L49.6071429,37.3571429 C48.7195424,37.3571429 48,36.6376005 48,35.75 L48,35.75 L48,35.75 C48,34.8623995 48.7195424,34.1428571 49.6071429,34.1428571 L56.3928571,34.1428571 L56.3928571,34.1428571 C57.2804576,34.1428571 58,34.8623995 58,35.75 C58,36.6376005 57.2804576,37.3571429 56.3928571,37.3571429 L56.3928571,37.3571429 Z M32,53.4285714 C28.9624339,53.4285714 26.5,50.7902494 26.5,47.5357143 C26.5,44.2811792 28.9624339,41.6428571 32,41.6428571 C35.0375661,41.6428571 37.5,44.2811792 37.5,47.5357143 C37.5,50.7902494 35.0375661,53.4285714 32,53.4285714 Z M32,50.2142857 C33.3807119,50.2142857 34.5,49.0150484 34.5,47.5357143 C34.5,46.0563801 33.3807119,44.8571429 32,44.8571429 C30.6192881,44.8571429 29.5,46.0563801 29.5,47.5357143 C29.5,49.0150484 30.6192881,50.2142857 32,50.2142857 Z" id="Combined-Shape"></path>
        </g>
    </g>
</svg>