<?xml version="1.0" encoding="UTF-8"?>
<svg width="64px" height="64px" viewBox="0 0 64 64" version="1.1" xmlns="http://www.w3.org/2000/svg" xmlns:xlink="http://www.w3.org/1999/xlink">
    <!-- Generator: Sketch 47.1 (45422) - http://www.bohemiancoding.com/sketch -->
    <title>finger-circle-o</title>
    <desc>Created with Sketch.</desc>
    <defs></defs>
    <g id="icon" stroke="none" stroke-width="1" fill="none" fill-rule="evenodd">
        <g id="finger-circle-o" fill="#7087EE">
            <path d="M27.1656084,56 L44,56 L44,43 L44,37.5 C44,36.6715729 43.3284271,36 42.5,36 C41.6715729,36 41,36.6715729 41,37.5 L41,39.5 C41,40.3284271 40.3284271,41 39.5,41 C38.6715729,41 38,40.3284271 38,39.5 L38,36.5 C38,35.6715729 37.3284271,35 36.5,35 C35.6715729,35 35,35.6715729 35,36.5 L35,39 C35,39.8284271 34.3284271,40.5 33.5,40.5 C32.6715729,40.5 32,39.8284271 32,39 L32,27.5 C32,26.6715729 31.3284271,26 30.5,26 C29.6715729,26 29,26.6715729 29,27.5 L29,43.9693664 L29,49.3027737 C29.0026506,49.3392188 29.003999,49.3760252 29.003999,49.4131465 C29.003999,50.2415736 28.3324261,50.9131465 27.503999,50.9131465 C27.0251203,50.9131465 26.5986545,50.6887399 26.324024,50.3393489 L26.3235603,50.3395177 L22.9400819,46.3072451 L22.9400819,46.3072451 C22.4075792,45.6726331 21.4614458,45.5898572 20.8268338,46.1223599 C20.1922218,46.6548626 20.1094459,47.600996 20.6419486,48.235608 L27.0698247,55.8960524 C27.1004319,55.9325287 27.1324057,55.967182 27.1656084,56 Z M25,58.1732329 L18.4375508,50.3524105 C16.8400427,48.4485745 17.0883705,45.6101743 18.9922065,44.0126662 L18.9922065,44.0126662 L18.9922065,44.0126662 C20.8960425,42.4151581 23.7344427,42.663486 25.3319508,44.567322 L26,45.363472 L26,27.5 C26,25.0147186 28.0147186,23 30.5,23 C32.9852814,23 35,25.0147186 35,27.5 L35,32.2560586 C35.4691684,32.0902313 35.9740469,32 36.5,32 C37.9396435,32 39.2213892,32.6760413 40.0450931,33.7279801 C40.7510765,33.2675721 41.5942909,33 42.5,33 C44.2514796,33 45.7692496,34.0006298 46.5128299,35.4614094 C47.1121138,35.1659736 47.7866743,35 48.5,35 C50.9852814,35 53,37.0147186 53,39.5 L53,53.5 C53,55.1109188 52.1535319,56.5241345 50.8811145,57.3191281 C50.9580519,57.5316487 51,57.7609256 51,58 L51,61 L51,61 C51,61.7402824 50.5978014,62.3866262 50,62.7324356 L50,63 C50,63.5522847 49.5522847,64 49,64 L27,64 C26.4477153,64 26,63.5522847 26,63 L26,62.7324356 C25.4021986,62.3866262 25,61.7402824 25,61 L25,58.1732329 Z M47,40.5 C47,41.3284271 46.3284271,42 45.5,42 C44.6715729,42 44,41.3284271 44,40.5 L44,56 L48.5,56 C49.3284271,56 50,55.3284271 50,54.5 L50,39.5 C50,38.6715729 49.3284271,38 48.5,38 C47.6715729,38 47,38.6715729 47,39.5 L47,40.5 Z M41.1612352,27.2204891 C40.8815406,27.9876396 40.1455656,28.5353883 39.281657,28.5353883 C38.1770875,28.5353883 37.281657,27.6399578 37.281657,26.5353883 C37.281657,26.2461902 37.3430384,25.9713284 37.4534839,25.7231204 L37.4510398,25.7220322 C37.8045428,24.8852806 38,23.965466 38,23 C38,19.1340068 34.8659932,16 31,16 C27.1340068,16 24,19.1340068 24,23 C24,23.8194944 24.1408217,24.606098 24.3995865,25.3369323 C24.4708529,25.5427465 24.509704,25.7637524 24.509704,25.9938325 C24.509704,27.098402 23.6142735,27.9938325 22.509704,27.9938325 C21.6557349,27.9938325 20.9267725,27.4586152 20.6399604,26.7053243 C20.6378617,26.7002794 20.636027,26.695138 20.634196,26.6899949 C20.626587,26.6695036 20.6193042,26.6488538 20.6123539,26.6280517 C20.2156464,25.492125 20,24.271246 20,23 C20,16.9248678 24.9248678,12 31,12 C37.0751322,12 42,16.9248678 42,23 C42,24.4952733 41.7016512,25.9208635 41.1612352,27.2204891 Z M53.0280981,29.6222794 C52.7944363,30.4675279 52.0198028,31.0881598 51.100213,31.0881598 C49.9956435,31.0881598 49.100213,30.1927293 49.100213,29.0881598 C49.100213,28.8468204 49.1429597,28.6154649 49.2212947,28.4012519 C49.728006,26.6892134 50,24.8763705 50,23 C50,12.5065898 41.4934102,4 31,4 C20.5065898,4 12,12.5065898 12,23 C12,29.1081793 14.8823435,34.5431511 19.3610997,38.0189848 C19.888953,38.3790295 20.2354962,38.9852467 20.2354962,39.6724034 C20.2354962,40.7769729 19.3400656,41.6724034 18.2354962,41.6724034 C17.767064,41.6724034 17.3362453,41.5113614 16.9953842,41.2416217 L16.993148,41.2444839 C11.5245068,37.0397634 8,30.431478 8,23 C8,10.2974508 18.2974508,0 31,0 C43.7025492,0 54,10.2974508 54,23 C54,25.3025143 53.6616606,27.5260053 53.0319863,29.6234681 L53.0280981,29.6222794 Z M29.5,58 C28.6715729,58 28,58.6715729 28,59.5 C28,60.3284271 28.6715729,61 29.5,61 L46.5,61 C47.3284271,61 48,60.3284271 48,59.5 C48,58.6715729 47.3284271,58 46.5,58 L29.5,58 Z" id="Combined-Shape"></path>
        </g>
    </g>
</svg>