<?xml version="1.0" standalone="no"?><!DOCTYPE svg PUBLIC "-//W3C//DTD SVG 1.1//EN" "http://www.w3.org/Graphics/SVG/1.1/DTD/svg11.dtd"><svg t="1513861584326" class="icon" style="" viewBox="0 0 1024 1024" version="1.1" xmlns="http://www.w3.org/2000/svg" p-id="17408" xmlns:xlink="http://www.w3.org/1999/xlink" width="64" height="64"><defs><style type="text/css"></style></defs><path d="M997.38112 746.256896C997.38112 813.537792 942.636032 868.279808 875.357696 868.279808 808.077824 868.279808 753.33376 813.537792 753.33376 746.256896 753.33376 678.977024 808.077824 624.233472 875.357696 624.233472 880.894464 624.233472 886.495744 624.614912 892.065792 625.392128 897.049088 600.431616 899.570688 575.519232 899.570688 551.281152 899.570688 417.769472 831.562752 296.190464 717.646336 226.046976 706.128384 218.946048 702.525952 203.800064 709.618176 192.288256 714.123776 184.980992 721.931776 180.625408 730.515456 180.625408 735.039488 180.625408 739.497984 181.878272 743.36768 184.25856 871.914496 263.376384 948.634624 400.576 948.634624 551.281152 948.634624 581.041664 945.286656 611.555328 938.7008 642.021376 974.960128 664.110592 997.38112 703.7952 997.38112 746.256896ZM875.357696 673.296384C835.131904 673.296384 802.397184 706.030592 802.397184 746.256896 802.397184 786.481152 835.131904 819.218432 875.357696 819.218432 915.581952 819.218432 948.316672 786.481152 948.316672 746.256896 948.316672 706.030592 915.581952 673.296384 875.357696 673.296384ZM682.500608 949.38112C630.216192 971.040256 574.83776 982.02112 517.887488 982.02112 404.782592 982.02112 294.089216 936.114688 213.74976 855.967232 197.21472 864.028672 178.841088 868.279808 160.418304 868.279808 93.139456 868.279808 38.394368 813.537792 38.394368 746.256896 38.394368 678.977024 93.139456 624.233472 160.418304 624.233472 227.697152 624.233472 282.44224 678.977024 282.44224 746.256896 282.44224 775.517184 271.98464 803.602944 252.911616 825.723392 323.617792 893.922816 419.98336 932.958208 517.887488 932.958208 568.299008 932.958208 617.378304 923.230208 663.72864 904.046592 666.679808 902.808064 669.837824 902.19008 673.10592 902.19008 683.070976 902.19008 691.973632 908.12416 695.797248 917.313024 700.954624 929.816064 694.988288 944.193024 682.500608 949.38112ZM160.418304 673.296384C120.193024 673.296384 87.458816 706.030592 87.458816 746.256896 87.458816 786.481152 120.193024 819.218432 160.418304 819.218432 200.643584 819.218432 233.377792 786.481152 233.377792 746.256896 233.377792 706.030592 200.643584 673.296384 160.418304 673.296384ZM517.887488 267.0976C466.744832 267.0976 421.221376 235.210752 403.49696 187.367936 252.785152 234.385408 148.438528 366.152192 137.298432 524.020736 136.361984 536.818176 125.604352 546.830848 112.814592 546.830848L111.132672 546.766848C104.547328 546.314752 98.597376 543.340032 94.281728 538.389504 89.980416 533.430272 87.869952 527.114752 88.31488 520.577024 100.93056 342.063104 224.460288 188.795904 396.053504 138.361344 399.593472 74.52416 453.6704 23.03488 517.887488 23.03488 585.166848 23.03488 639.911424 77.777408 639.911424 145.06496 639.911424 212.352512 585.166848 267.0976 517.887488 267.0976ZM517.887488 72.113664C477.66272 72.113664 444.928 104.840192 444.928 145.06496 444.928 185.289728 477.66272 218.018816 517.887488 218.018816 558.112768 218.018816 590.846976 185.289728 590.846976 145.06496 590.846976 104.840192 558.112768 72.113664 517.887488 72.113664Z" p-id="17409" fill="#ffffff"></path></svg>