<?xml version="1.0" standalone="no"?><!DOCTYPE svg PUBLIC "-//W3C//DTD SVG 1.1//EN" "http://www.w3.org/Graphics/SVG/1.1/DTD/svg11.dtd"><svg t="1513861607891" class="icon" style="" viewBox="0 0 1024 1024" version="1.1" xmlns="http://www.w3.org/2000/svg" p-id="17815" xmlns:xlink="http://www.w3.org/1999/xlink" width="64" height="64"><defs><style type="text/css"></style></defs><path d="M344.96 295.082667h460.8v51.2h-460.8zM344.96 397.482667h460.8v51.2h-460.8zM344.96 499.882667h204.8v51.2h-204.8zM344.96 602.282667h102.4v51.2h-102.4zM344.96 704.682667h102.4v51.2h-102.4z" p-id="17816" fill="#ffffff"></path><path d="M242.56 755.882667h51.2v-102.4h-51.2v-102.4h51.2v-102.4h-51.2v-102.4h51.2v-102.4h-51.2v-102.4h614.4v307.2h51.2v-358.4h-716.8v153.6h-102.4v102.4h102.4v102.4h-102.4v102.4h102.4v102.4h-102.4v102.4h102.4v153.6h307.2v-51.2h-256z" p-id="17817" fill="#ffffff"></path><path d="M729.045333 635.946667c-48.64 0-88.149333 39.509333-88.149333 88.021333a88.234667 88.234667 0 0 0 176.341333 0 88.149333 88.149333 0 0 0-88.192-88.021333z m0 130.901333a42.752 42.752 0 1 1 0-85.504 42.752 42.752 0 0 1 0 85.504z" p-id="17818" fill="#ffffff"></path><path d="M962.346667 678.101333c-3.328-17.493333-14.549333-28.8-28.928-28.8h-2.090667a49.92 49.92 0 0 1-49.92-49.92c0-7.253333 3.157333-16.085333 4.394667-18.773333a36.693333 36.693333 0 0 0-13.525334-44.714667l-58.410666-32.256a36.864 36.864 0 0 0-14.677334-2.986666 39.68 39.68 0 0 0-27.989333 11.477333c-7.253333 7.552-26.496 22.997333-39.893333 22.997333-13.44 0-32.896-15.786667-40.106667-23.381333a39.466667 39.466667 0 0 0-42.581333-8.874667l-1.066667 0.469334-59.434667 32.597333-1.408 0.896a36.096 36.096 0 0 0-12.373333 43.605333c0.469333 1.066667 4.437333 10.752 4.437333 18.986667 0 27.52-22.442667 49.92-50.005333 49.92h-2.346667c-14.037333 0-25.301333 11.264-28.586666 28.757333-0.512 2.688-4.906667 26.837333-4.906667 46.336s4.437333 43.648 4.906667 46.336c3.285333 17.408 14.549333 28.8 28.928 28.8h2.005333c27.562667 0 50.005333 22.357333 50.005333 49.92 0 7.168-3.157333 16.085333-4.437333 18.773334-6.826667 15.317333-1.578667 34.176 13.482667 44.672l57.258666 31.914666a38.954667 38.954667 0 0 0 43.050667-9.002666c7.04-7.68 27.093333-24.405333 40.746667-24.405334 13.781333 0 33.621333 16.810667 41.088 24.917334a38.442667 38.442667 0 0 0 44.288 8.576l57.898666-32 1.365334-0.896a36.096 36.096 0 0 0 12.288-43.562667c-0.426667-1.066667-4.437333-10.752-4.437334-18.986667 0-27.52 22.357333-49.92 49.92-49.92h2.346667c14.08 0 25.301333-11.349333 28.586667-28.672 0.042667-0.256 4.906667-25.898667 4.906666-46.421333 0.085333-19.626667-4.309333-43.776-4.778666-46.378667z m-43.52 76.714667a95.232 95.232 0 0 0-82.816 94.549333c0 11.093333 2.688 21.674667 5.034666 28.842667l-41.770666 23.082667a168.490667 168.490667 0 0 0-17.152-14.677334c-18.56-13.738667-36.437333-20.736-53.162667-20.736-16.682667 0-34.432 6.912-52.736 20.394667a158.72 158.72 0 0 0-17.066667 14.421333l-40.021333-22.314666a93.44 93.44 0 0 0 5.077333-28.928c0-48.256-35.84-88.405333-82.773333-94.506667a218.069333 218.069333 0 0 1-2.901333-30.506667c0-10.069333 1.664-22.741333 2.901333-30.506666a95.402667 95.402667 0 0 0 82.773333-94.549334c0-11.093333-2.688-21.674667-5.034666-28.842666l43.221333-23.722667c3.669333 3.584 9.770667 8.917333 17.066667 14.165333 18.090667 12.885333 35.584 19.498667 51.925333 19.498667 16.128 0 33.450667-6.485333 51.456-19.114667 7.296-5.162667 13.312-10.325333 16.938667-13.824l41.386666 22.954667a94.762667 94.762667 0 0 0-5.034666 28.928c0 48.170667 35.84 88.32 82.816 94.506667 1.237333 7.978667 2.901333 20.565333 2.901333 30.506666-0.042667 9.941333-1.706667 22.528-3.029333 30.378667z" p-id="17819" fill="#ffffff"></path></svg>