<?xml version="1.0" standalone="no"?><!DOCTYPE svg PUBLIC "-//W3C//DTD SVG 1.1//EN" "http://www.w3.org/Graphics/SVG/1.1/DTD/svg11.dtd"><svg t="1513861616603" class="icon" style="" viewBox="0 0 1024 1024" version="1.1" xmlns="http://www.w3.org/2000/svg" p-id="18039" xmlns:xlink="http://www.w3.org/1999/xlink" width="64" height="64"><defs><style type="text/css"></style></defs><path d="M512 0C228.693333 0 0 228.693333 0 512s228.693333 512 512 512 512-228.693333 512-512S795.306667 0 512 0z m0 993.28C245.76 993.28 30.72 778.24 30.72 512S245.76 30.72 512 30.72 993.28 245.76 993.28 512 778.24 993.28 512 993.28z" p-id="18040" fill="#ffffff"></path><path d="M597.333333 597.333333C648.533333 566.613333 682.666667 512 682.666667 447.146667c0-95.573333-75.093333-174.08-170.666667-174.08s-170.666667 78.506667-170.666667 174.08c0 64.853333 34.133333 119.466667 85.333334 150.186666a259.413333 259.413333 0 0 0-167.253334 242.346667c0 10.24 10.24 20.48 20.48 20.48s20.48-10.24 20.48-20.48c0-122.88 95.573333-218.453333 215.04-218.453333s215.04 98.986667 215.04 218.453333c0 10.24 10.24 20.48 20.48 20.48s20.48-10.24 20.48-20.48c-6.826667-112.64-75.093333-208.213333-174.08-242.346667z m-218.453333-150.186666c0-75.093333 58.026667-133.12 133.12-133.12s133.12 61.44 133.12 133.12c0 75.093333-58.026667 133.12-133.12 133.12s-133.12-58.026667-133.12-133.12z" p-id="18041" fill="#ffffff"></path><path d="M791.893333 556.373333c34.133333-27.306667 51.2-68.266667 44.373334-112.64-10.24-68.266667-75.093333-112.64-143.36-98.986666-10.24 0-17.066667 10.24-17.066667 23.893333 0 10.24 10.24 17.066667 23.893333 17.066667 47.786667-6.826667 92.16 23.893333 98.986667 68.266666 6.826667 44.373333-23.893333 85.333333-71.68 95.573334h-3.413333c-10.24 0-20.48 10.24-20.48 20.48s10.24 20.48 20.48 20.48h6.826666c78.506667 3.413333 119.466667 54.613333 112.64 133.12 0 10.24 6.826667 20.48 17.066667 20.48s20.48-6.826667 20.48-17.066667c6.826667-85.333333-23.893333-146.773333-88.746667-170.666667z m-501.76 27.306667h6.826667c10.24 0 20.48-10.24 20.48-20.48s-10.24-20.48-20.48-20.48h-3.413333c-47.786667-10.24-78.506667-51.2-71.68-95.573333 6.826667-44.373333 51.2-75.093333 98.986666-68.266667 10.24 0 20.48-6.826667 23.893334-17.066667 0-10.24-6.826667-20.48-17.066667-23.893333-68.266667-10.24-133.12 34.133333-143.36 98.986667-6.826667 44.373333 10.24 85.333333 44.373333 112.64-64.853333 30.72-98.986667 92.16-92.16 170.666666 0 10.24 10.24 20.48 20.48 17.066667 10.24 0 20.48-10.24 17.066667-20.48-3.413333-78.506667 37.546667-129.706667 116.053333-133.12z" p-id="18042" fill="#ffffff"></path></svg>