<?xml version="1.0" encoding="UTF-8"?>
<svg width="64px" height="64px" viewBox="0 0 64 64" version="1.1" xmlns="http://www.w3.org/2000/svg" xmlns:xlink="http://www.w3.org/1999/xlink">
    <!-- Generator: Sketch 47.1 (45422) - http://www.bohemiancoding.com/sketch -->
    <title>list-check-o</title>
    <desc>Created with Sketch.</desc>
    <defs></defs>
    <g id="icon" stroke="none" stroke-width="1" fill="none" fill-rule="evenodd">
        <g id="list-check-o" fill="#ffffff">
            <path d="M29.2634679,31.3480818 L42.8031005,12.0114826 C43.4366555,11.1066722 44.6837471,10.8867763 45.5885574,11.5203313 C46.4933678,12.1538864 46.7132637,13.4009779 46.0797087,14.3057883 L31.1667213,35.6037415 C30.5331663,36.5085518 29.2860747,36.7284477 28.3812643,36.0948927 L28.3812643,36.0948927 L28.3812643,36.0948927 C28.2238906,35.9846984 28.0872366,35.8559435 27.9721892,35.7136574 L19.6196901,27.3611582 C18.8386415,26.5801097 18.8386415,25.3137797 19.6196901,24.5327311 C20.4007387,23.7516825 21.6670686,23.7516825 22.4481172,24.5327311 L29.2634679,31.3480818 Z M8,0 L56,0 C58.209139,-4.05812251e-16 60,1.790861 60,4 L60,60 C60,62.209139 58.209139,64 56,64 L8,64 C5.790861,64 4,62.209139 4,60 L4,4 L4,4 C4,1.790861 5.790861,4.05812251e-16 8,0 L8,0 Z M10,4 C8.8954305,4 8,4.8954305 8,6 L8,58 C8,59.1045695 8.8954305,60 10,60 L54,60 C55.1045695,60 56,59.1045695 56,58 L56,6 C56,4.8954305 55.1045695,4 54,4 L10,4 Z M16,42 L48,42 C49.1045695,42 50,42.8954305 50,44 C50,45.1045695 49.1045695,46 48,46 L16,46 C14.8954305,46 14,45.1045695 14,44 C14,42.8954305 14.8954305,42 16,42 Z M16,51 L48,51 C49.1045695,51 50,51.8954305 50,53 C50,54.1045695 49.1045695,55 48,55 L16,55 C14.8954305,55 14,54.1045695 14,53 C14,51.8954305 14.8954305,51 16,51 Z" id="Combined-Shape"></path>
        </g>
    </g>
</svg>
