<?xml version="1.0" encoding="UTF-8"?>
<svg width="64px" height="64px" viewBox="0 0 64 64" version="1.1" xmlns="http://www.w3.org/2000/svg" xmlns:xlink="http://www.w3.org/1999/xlink">
    <!-- Generator: Sketch 47.1 (45422) - http://www.bohemiancoding.com/sketch -->
    <title>list-item-o</title>
    <desc>Created with Sketch.</desc>
    <defs></defs>
    <g id="icon" stroke="none" stroke-width="1" fill="none" fill-rule="evenodd">
        <g id="list-item-o" fill="#7087EE">
            <path d="M9,0 L55,0 C57.209139,-4.05812251e-16 59,1.790861 59,4 L59,60 C59,62.209139 57.209139,64 55,64 L9,64 C6.790861,64 5,62.209139 5,60 L5,4 L5,4 C5,1.790861 6.790861,4.05812251e-16 9,0 L9,0 Z M11,4 L11,4 C9.8954305,4 9,4.8954305 9,6 L9,58 C9,59.1045695 9.8954305,60 11,60 L11,60 L53,60 C54.1045695,60 55,59.1045695 55,58 L55,6 C55,4.8954305 54.1045695,4 53,4 L11,4 Z M27,49 L47,49 C48.1045695,49 49,49.8954305 49,51 C49,52.1045695 48.1045695,53 47,53 L27,53 C25.8954305,53 25,52.1045695 25,51 C25,49.8954305 25.8954305,49 27,49 Z M15,48 L21,48 L21,54 L15,54 L15,48 Z M27,37 L47,37 C48.1045695,37 49,37.8954305 49,39 C49,40.1045695 48.1045695,41 47,41 L27,41 C25.8954305,41 25,40.1045695 25,39 C25,37.8954305 25.8954305,37 27,37 Z M15,36 L21,36 L21,42 L15,42 L15,36 Z M27,25 L47,25 C48.1045695,25 49,25.8954305 49,27 C49,28.1045695 48.1045695,29 47,29 L27,29 C25.8954305,29 25,28.1045695 25,27 C25,25.8954305 25.8954305,25 27,25 Z M16,10 L48,10 C49.1045695,10 50,10.8954305 50,12 C50,13.1045695 49.1045695,14 48,14 L16,14 C14.8954305,14 14,13.1045695 14,12 C14,10.8954305 14.8954305,10 16,10 Z M15,24 L21,24 L21,30 L15,30 L15,24 Z" id="Combined-Shape"></path>
        </g>
    </g>
</svg>