<?xml version="1.0" standalone="no"?><!DOCTYPE svg PUBLIC "-//W3C//DTD SVG 1.1//EN" "http://www.w3.org/Graphics/SVG/1.1/DTD/svg11.dtd"><svg t="1513855933443" class="icon" style="" viewBox="0 0 1054 1024" version="1.1" xmlns="http://www.w3.org/2000/svg" p-id="15603" xmlns:xlink="http://www.w3.org/1999/xlink" width="65.875" height="64"><defs><style type="text/css"></style></defs><path d="M200.197146 467.283316a65.488874 65.488874 0 1 0 65.488874-65.488874 65.488874 65.488874 0 0 0-65.488874 65.488874z m0 0M459.042219 467.283316a65.488874 65.488874 0 1 0 65.488874-65.488874 65.488874 65.488874 0 0 0-65.488874 65.488874z m0 0M717.877291 467.283316a65.488874 65.488874 0 1 0 65.488874-65.488874 65.488874 65.488874 0 0 0-65.488874 65.488874z m0 0" p-id="15604" fill="#5867e4"></path><path d="M1012.197171 283.728445c-26.923648-55.687546-65.198834-105.774332-114.015449-148.550129C798.75825 47.916493 667.010399 0.010001 527.131445 0.010001c-139.958964 0-271.716817 48.006505-370.950263 135.168315-48.846619 42.775796-87.111803 92.712562-114.015449 148.550129A420.056917 420.056917 0 0 0 0.00002 467.283316c0 74.660116 20.382762 148.810163 58.797967 214.819108 33.604553 57.547798 81.201003 109.014771 138.288738 149.790296v154.770971a37.425071 37.425071 0 0 0 18.67253 32.354384 37.465076 37.465076 0 0 0 37.335059 0l163.792193-94.572814a593.790457 593.790457 0 0 0 110.244938 10.271391c140.018972 0 271.746821-48.066513 370.990269-135.178316 48.846619-42.785797 87.111803-92.712562 114.015449-148.550128a420.056917 420.056917 0 0 0 42.155712-183.554872c0.160022-63.778642-14.151918-125.527009-42.155712-183.704891z m-485.065726 576.31809a519.770428 519.770428 0 0 1-108.884753-11.51156 37.325057 37.325057 0 0 0-26.443583 4.200569l-120.046266 69.399403V812.290064a37.725112 37.725112 0 0 0-16.792276-31.264237C140.309032 705.895647 74.520117 591.560155 74.520117 467.283316c0-216.529339 203.02751-392.613198 452.651334-392.613198 249.503807 0 452.651333 176.083859 452.651333 392.613198S776.675258 860.046535 527.131445 860.046535z m0 0" p-id="15605" fill="#5867e4"></path></svg>