<?xml version="1.0" encoding="UTF-8"?>
<svg width="64px" height="64px" viewBox="0 0 64 64" version="1.1" xmlns="http://www.w3.org/2000/svg" xmlns:xlink="http://www.w3.org/1999/xlink">
    <!-- Generator: Sketch 47.1 (45422) - http://www.bohemiancoding.com/sketch -->
    <title>package-o</title>
    <desc>Created with Sketch.</desc>
    <defs></defs>
    <g id="icon" stroke="none" stroke-width="1" fill="none" fill-rule="evenodd">
        <g id="package-o" fill-rule="nonzero" fill="#7087EE">
            <path d="M56,9.99999998 L44,9.99999998 L44,6.00000002 C44,3.78974357 42.2102564,2 40,2 L24,2 C21.790861,2 20,3.79086101 20,6.00000002 L20,9.99999998 L7.99999998,9.99999998 C3.58205127,9.99999998 0,13.5820513 0,18 L0,54 C0,58.4174359 3.58205127,62 7.99999998,62 L56,62 C60.4179487,62 63.9999999,58.4179487 64,54 L64,18 C64,13.5820513 60.4179487,10 56,9.99999998 L56,9.99999998 Z M24,8 C24,6.89589746 24.8958974,6.00000002 26,6.00000002 L38,6.00000002 C39.1041025,6.00000002 39.9999999,6.89589746 40,8 L40,9.99999998 L24,9.99999998 L24,8 L24,8 Z M60,54 C59.9999999,56.209139 58.2091389,58 56,58 L7.99999998,58 C5.79086101,57.9999999 4.00000005,56.209139 4.00000002,54 L4.00000002,32 L24.2820513,32 C24.1158974,32.6441026 24,33.3061538 24,34 C24,38.4179487 27.5820513,42 32,42 C36.4179487,42 40,38.4179487 40,34 C40,33.305641 39.8841026,32.6420513 39.7179487,32 L60,32 L60,54 L60,54 Z M28,34 C28,33.2676923 28.2117949,32.5897436 28.5538461,32 L35.4441026,32 C35.7882051,32.5897436 36,33.2682051 36,34 C35.9997326,36.2089499 34.20895,37.9995159 32,37.9995159 C29.79105,37.9995159 28.0002674,36.2089499 28,34 L28,34 Z M60,28 L4.00000002,28 L4.00000002,18 C4.00000002,15.7897436 5.7902564,14 7.99999998,14 L56,14 C58.2102563,14 60,15.7897436 60,18 L60,28 Z" id="Shape"></path>
        </g>
    </g>
</svg>