<?xml version="1.0" encoding="UTF-8"?>
<svg width="64px" height="64px" viewBox="0 0 64 64" version="1.1" xmlns="http://www.w3.org/2000/svg" xmlns:xlink="http://www.w3.org/1999/xlink">
    <!-- Generator: Sketch 47.1 (45422) - http://www.bohemiancoding.com/sketch -->
    <title>search</title>
    <desc>Created with Sketch.</desc>
    <defs></defs>
    <g id="icon" stroke="none" stroke-width="1" fill="none" fill-rule="evenodd">
        <g id="search" fill="#ffffff">
            <path d="M53.0262695,49.2302564 L63.177062,56.6200541 C64.0700095,57.2701217 64.2669026,58.5209826 63.616835,59.4139301 C63.5555481,59.4981151 63.4877798,59.5773849 63.4141483,59.6510164 L59.6509986,63.4141661 L59.6509986,63.4141661 C58.8699918,64.1951729 57.6037297,64.1951729 56.8227229,63.4141661 C56.7490914,63.3405346 56.6813232,63.2612648 56.6200363,63.1770798 L49.2308048,53.027065 C44.0237197,57.3819538 37.3171281,60.0031267 29.9983935,60.0031267 C13.4307383,60.0031267 0,46.5709693 0,30.0015634 C0,13.4321575 13.4307383,5.68434189e-14 29.9983935,5.68434189e-14 C46.5660488,5.68434189e-14 59.996787,13.4321575 59.996787,30.0015634 C59.996787,37.3183774 57.3778199,44.0234343 53.0262695,49.2302564 Z M29.9990631,55.0035359 C43.8054425,55.0035359 54.9977244,43.8100713 54.9977244,30.002233 C54.9977244,16.1943948 43.8054425,5.00093024 29.9990631,5.00093024 C16.1926837,5.00093024 5.00040186,16.1943948 5.00040186,30.002233 C5.00040186,43.8100713 16.1926837,55.0035359 29.9990631,55.0035359 Z"></path>
        </g>
    </g>
</svg>
