<?xml version="1.0" standalone="no"?><!DOCTYPE svg PUBLIC "-//W3C//DTD SVG 1.1//EN" "http://www.w3.org/Graphics/SVG/1.1/DTD/svg11.dtd"><svg t="1513856026149" class="icon" style="" viewBox="0 0 1024 1024" version="1.1" xmlns="http://www.w3.org/2000/svg" p-id="16930" xmlns:xlink="http://www.w3.org/1999/xlink" width="24" height="24"><defs><style type="text/css"></style></defs><path d="M510.976694 57.929364c-247.950162 0-448.953082 201.00292-448.953082 448.953082 0 105.546871 36.427654 202.580858 97.389074 279.231609 52.243875 65.690118 122.508171 116.405173 203.318662 144.664797 46.410006 16.229636 96.296183 25.057699 148.245346 25.057699s101.834316-8.828063 148.245346-25.057699c81.660858-28.556383 152.557558-80.038918 204.967208-146.736992 59.971883-76.32227 95.740528-172.563194 95.740528-277.159414C959.929776 258.932284 758.926856 57.929364 510.976694 57.929364zM824.833915 760.39223l-163.401534-63.680345c0 0-32.004925-12.424984-44.438095-24.644283-7.992021-7.854898-7.413853-26.38595-0.341784-50.057069s93.103468-119.869065 93.103468-207.254298c0-134.955668-88.723717-244.376777-198.160175-244.376777-109.429295 0-198.144826 109.421108-198.144826 244.384963 0 83.697237 76.66303 183.476755 86.122473 201.611787 9.466606 18.136056 7.163143 45.775556-0.312108 54.148247-11.223622 12.577456-52.231595 25.184589-52.231595 25.184589l-148.639319 66.243727c-56.788377-69.511143-90.857311-158.309562-90.857311-255.069303 0-222.815715 180.62787-403.442562 403.442562-403.442562s403.442562 180.62787 403.442562 403.442562C914.419256 602.918709 880.860952 691.115424 824.833915 760.39223z" p-id="16931" fill="#ffffff"></path></svg>