<?xml version="1.0" standalone="no"?><!DOCTYPE svg PUBLIC "-//W3C//DTD SVG 1.1//EN" "http://www.w3.org/Graphics/SVG/1.1/DTD/svg11.dtd"><svg t="1513856001645" class="icon" style="" viewBox="0 0 1024 1024" version="1.1" xmlns="http://www.w3.org/2000/svg" p-id="16536" xmlns:xlink="http://www.w3.org/1999/xlink" width="64" height="64"><defs><style type="text/css"></style></defs><path d="M933.565315 646.201491c0 0-3.40454 5.105275-64.695464 70.097498-46.229904 49.025577-161.483858 160.713308-161.483858 160.713308l-63.505359 64.868403c-72.723302 74.224492-190.628642 74.224492-263.351943 0 0 0-81.982176-63.86454-154.329924-137.709385-72.488964-73.991178-135.348618-157.968801-135.348618-157.968801-72.718185-74.225515-72.718185-194.565301 0-268.794909 0 0 54.993498-75.951833 123.234719-145.607262 76.16468-77.734432 166.449963-150.066831 166.449963-150.066831 72.722278-74.224492 190.628642-74.224492 263.346827 0 0 0 82.127486 64.003709 154.542772 137.917116 72.426543 73.92364 135.140886 157.756977 135.140886 157.756977C1006.282476 451.630051 1006.282476 571.975976 933.565315 646.201491L933.565315 646.201491zM897.718899 388.479779c0 0-57.381895-76.948533-123.636878-144.800897C707.828061 175.833681 632.692826 117.089765 632.692826 117.089765c-66.531276-68.127633-174.403099-68.127633-240.940514 0 0 0-82.600253 66.391083-152.277172 137.740084-62.433958 63.936171-112.747877 133.648906-112.747877 133.648906-66.526159 68.12661-66.526159 178.583305 0 246.715031 0 0 57.505715 77.079516 123.828236 144.992255 66.192561 67.783803 141.196813 126.396735 141.196813 126.396735 66.537416 68.127633 174.408215 68.127633 240.940514 0l58.103326-59.538001c0 0 105.440447-102.512768 147.737786-147.514705 56.076156-59.652612 59.184961-64.337307 59.184961-64.337307C964.249151 567.0682 964.249151 456.605366 897.718899 388.479779L897.718899 388.479779zM745.323023 613.479229 603.547019 613.479229l0 141.780097c0 22.376637-18.139126 40.510646-40.509622 40.510646l-101.270475 0c-22.376637 0-40.510646-18.134009-40.510646-40.510646L421.256276 613.479229 279.477202 613.479229c-22.370497 0-40.509622-18.134009-40.509622-40.505529l0-101.275591c0-22.370497 18.139126-40.504506 40.509622-40.504506l141.780097 0L421.2573 289.413506c0-22.375613 18.134009-40.509622 40.510646-40.509622l101.270475 0c22.370497 0 40.509622 18.134009 40.509622 40.509622l0 141.78112 141.776004 0c22.375613 0 40.509622 18.134009 40.509622 40.504506l0 101.275591C785.832645 595.34522 767.698636 613.479229 745.323023 613.479229L745.323023 613.479229zM745.323023 471.698109 563.037397 471.698109 563.037397 289.413506l-101.270475 0 0 182.284603L279.477202 471.698109l0 101.275591 182.290743 0 0 182.284603 101.270475 0L563.03842 572.9737l182.290743 0 0-101.275591L745.323023 471.698109zM745.323023 471.698109" p-id="16537" fill="#5867e4"></path></svg>